<?xml version="1.0" encoding="utf-8"?>
<!-- Generator: Adobe Illustrator 27.3.1, SVG Export Plug-In . SVG Version: 6.00 Build 0)  -->
<svg version="1.1" id="레이어_1" xmlns="http://www.w3.org/2000/svg" xmlns:xlink="http://www.w3.org/1999/xlink" x="0px"
	 y="0px" viewBox="0 0 220 44" style="enable-background:new 0 0 220 44;" xml:space="preserve">
<style type="text/css">
	.st0{fill:#FFFFFF;}
	.st1{fill:#F47F20;}
</style>
<g>
	<path class="st0" d="M88.4,19.4c0.3-1.2,0.4-2.5,0.4-3.9c0-1.3-0.1-2.5-0.3-3.6c-0.2-1.4-0.7-2.7-1.4-3.9c-0.7-1.2-1.7-2.3-3-3.3
		c-1.2-0.9-2.6-1.6-4.4-2.2c-1.6-0.5-3.5-0.9-5.6-1.2C72.1,1.2,69.7,1,66.9,1H47.2c-2.2,0-4,1.8-4,4v0.6C43,5.4,42.8,5.2,42.6,5
		c-1.7-1.8-4.2-3.1-7.3-3.9C35,1.1,34.7,1,34.4,1H5.1c-2.2,0-4,1.8-4,4v8.7c0,1.8,1.2,3.4,2.9,3.8v8c-1.7,0.5-2.9,2-2.9,3.8V39
		c0,2.2,1.8,4,4,4h26.3c2.9,0,5.3-0.3,7.3-1c1.8-0.6,3.3-1.4,4.5-2.4c0.3,1.9,2,3.3,3.9,3.3h17.4c1.2,0,2.2-0.5,2.9-1.3
		c0.7,0.8,1.8,1.3,2.9,1.3h14.4c0.5,0,1-0.1,1.5-0.3c0.5,0.2,1,0.3,1.5,0.3h12.9c1.9,0,3.5-1.3,3.9-3.2l0.5-2.5h3l0.5,2.5
		c0.4,1.8,2,3.2,3.9,3.2h12.9c0.6,0,1.3-0.2,1.8-0.4c0.5,0.3,1.1,0.4,1.8,0.4h14.5c2.2,0,3.9-1.7,4-3.9l1.3,2c0.7,1.1,2,1.8,3.4,1.8
		h17.4c0.9,0,1.7-0.3,2.3-0.7c0.7,0.5,1.4,0.7,2.3,0.7h17.4c2.5,0,4.8-0.1,7-0.4c2.3-0.3,4.4-0.8,6.4-1.4c2-0.7,3.9-1.6,5.6-2.7
		c1.8-1.2,3.3-2.6,4.5-4.3c1.2-1.7,2.1-3.6,2.8-5.7c0.6-2.1,0.9-4.4,0.9-7c0-2.9-0.4-5.6-1.2-7.8c-0.8-2.4-2.1-4.4-3.7-6.2
		c-1.6-1.7-3.5-3.1-5.7-4.1c-2-1-4.3-1.8-6.8-2.3C201.3,1.1,201,1,200.7,1h-26.4c-0.9,0-1.7,0.3-2.3,0.7c-0.7-0.5-1.4-0.7-2.3-0.7
		h-14.5c-2.2,0-4,1.8-4,3.9l-1.3-2.1c-0.7-1.2-2-1.9-3.4-1.9h-17.4c-2.2,0-4,1.8-4,4v9.5c0,1.8,1.2,3.4,2.9,3.8v6.3
		c-0.5-0.4-1.1-0.7-1.7-0.8l-0.4-0.1l-6-19.9C119.3,2.2,117.8,1,116,1H97.3c-1.8,0-3.3,1.2-3.8,2.8l-4.7,15.6H88.4z"/>
	<g>
		<path class="st1" d="M34.4,5c2.4,0.6,4.2,1.5,5.3,2.7c1.2,1.3,1.8,3,1.8,5.1c0,1.4-0.2,2.7-0.5,3.7c-0.3,1-0.7,1.8-1.2,2.5
			s-1,1.1-1.6,1.5s-1.1,0.6-1.6,0.8c-0.5,0.2-1.1,0.3-1.7,0.3c0.6,0,1.2,0.1,1.9,0.2c0.7,0.1,1.3,0.3,2,0.5s1.3,0.5,1.9,0.8
			c0.6,0.3,1.1,0.8,1.6,1.3c0.5,0.5,0.8,1.2,1.1,1.9c0.3,0.7,0.4,1.6,0.4,2.5c0,1.4-0.2,2.8-0.6,4c-0.4,1.2-1,2.3-2,3.2
			c-0.9,0.9-2.2,1.6-3.8,2.1c-1.6,0.5-3.6,0.8-6.1,0.8H5.1v-9.6L8,28.8V14.3l-2.9-0.6V5H34.4z M29.3,15.6c0-0.8-0.1-1.5-0.4-1.9
			c-0.3-0.4-0.6-0.8-1.1-1c-0.4-0.2-0.9-0.3-1.5-0.4s-1.1,0-1.7,0h-2.1v6.8h2.1c0.6,0,1.1,0,1.7-0.1s1.1-0.2,1.5-0.4
			c0.4-0.2,0.8-0.6,1.1-1C29.1,17.2,29.3,16.5,29.3,15.6z M29.3,27.1c0-0.8-0.1-1.4-0.4-1.9c-0.3-0.4-0.6-0.8-1.1-1
			c-0.4-0.2-0.9-0.3-1.5-0.4s-1.1,0-1.7,0h-2.1v6.8h2.1c0.6,0,1.1,0,1.7-0.1c0.6,0,1.1-0.2,1.5-0.4c0.4-0.2,0.8-0.6,1.1-1.1
			C29.1,28.7,29.3,28,29.3,27.1z"/>
		<path class="st1" d="M84.8,39H70.4c-0.5-0.8-0.9-1.7-1.4-2.7c-0.5-0.9-0.9-1.9-1.4-3c-0.5-1-0.9-2.1-1.3-3.2
			c-0.4-1.1-0.7-2.2-1-3.4h-0.8V39H47.2v-9.6l2.9-0.6V15.1l-2.9-0.6V5h19.7c2.6,0,4.9,0.1,6.8,0.3c1.9,0.2,3.5,0.6,4.8,1
			c1.3,0.4,2.4,1,3.2,1.6c0.8,0.6,1.5,1.3,1.9,2.1c0.5,0.8,0.8,1.6,0.9,2.6c0.2,0.9,0.2,1.9,0.2,3c0,1.1-0.1,2-0.3,2.9
			c-0.2,0.9-0.6,1.7-1.1,2.4c-0.5,0.7-1.2,1.4-2.1,2c-0.9,0.6-2,1.2-3.4,1.7c0.3,0.6,0.7,1.3,1.3,2.1c0.6,0.8,1.2,1.6,1.9,2.4
			c0.7,0.8,1.3,1.6,2,2.4c0.7,0.8,1.2,1.4,1.7,2V39z M64.6,20.3c0.9,0,1.7,0,2.4-0.1c0.7-0.1,1.3-0.3,1.8-0.6
			c0.5-0.3,0.9-0.7,1.2-1.3c0.3-0.6,0.4-1.4,0.4-2.3c0-1-0.1-1.7-0.4-2.3c-0.3-0.6-0.7-1-1.2-1.3c-0.5-0.3-1.1-0.5-1.8-0.6
			c-0.7-0.1-1.5-0.1-2.4-0.1V20.3z"/>
		<path class="st1" d="M112.6,39l-1.2-5.7h-9.5l-1.2,5.7H87.8V27.8l2.8-0.6L97.3,5H116l6.7,22.2l2.8,0.6V39H112.6z M103.4,25.6h6.5
			l-3.3-13.3L103.4,25.6z"/>
		<path class="st1" d="M140.7,21.2v7.6l2.9,0.5V39h-14.5v-9.6l2.9-0.6V15.1l-2.9-0.6V5h17.4l11.6,18.3v-8.2l-2.9-0.6V5h14.5v9.5
			l-2.9,0.6v13.7l2.9,0.6V39h-17.4L140.7,21.2z"/>
		<path class="st1" d="M200.7,5c2.2,0.5,4.2,1.1,5.9,2c1.8,0.9,3.2,1.9,4.5,3.3c1.2,1.3,2.2,2.9,2.8,4.8c0.7,1.9,1,4,1,6.5
			c0,2.2-0.3,4.1-0.8,5.8c-0.5,1.7-1.2,3.2-2.2,4.5c-0.9,1.3-2.1,2.4-3.5,3.3c-1.4,0.9-2.9,1.6-4.6,2.2c-1.7,0.6-3.6,1-5.6,1.2
			c-2,0.3-4.2,0.4-6.5,0.4h-17.4v-9.6l2.9-0.6V14.3l-2.9-0.6V5H200.7z M193.9,28.8c1.1,0,2-0.1,2.7-0.2c0.7-0.2,1.3-0.4,1.8-0.7
			c0.5-0.3,0.8-0.7,1.1-1.1c0.3-0.4,0.5-0.9,0.6-1.4s0.2-1.1,0.2-1.8c0-0.6,0-1.3,0-2c0-0.7,0-1.4,0-2c0-0.6-0.1-1.2-0.2-1.8
			s-0.3-1-0.6-1.4c-0.3-0.4-0.6-0.8-1.1-1.1c-0.5-0.3-1.1-0.5-1.8-0.7c-0.7-0.2-1.6-0.2-2.7-0.2h-2.2v14.5H193.9z"/>
	</g>
</g>
</svg>
