<?xml version="1.0" encoding="utf-8"?>
<!-- Generator: Adobe Illustrator 27.3.1, SVG Export Plug-In . SVG Version: 6.00 Build 0)  -->
<svg version="1.1" id="레이어_1" xmlns="http://www.w3.org/2000/svg" xmlns:xlink="http://www.w3.org/1999/xlink" x="0px"
	 y="0px" viewBox="0 0 222 40" style="enable-background:new 0 0 222 40;" xml:space="preserve">
<style type="text/css">
	.st0{fill:#FFFFFF;}
	.st1{fill:#F47F20;}
</style>
<g>
	<g>
		<path class="st0" d="M25.4,7.5c0-2.2-1.8-4-4-4H5.3c-2.2,0-4,1.8-4,4v7.6c0,1.6,0.9,3,2.3,3.6v4.6c-1.4,0.6-2.3,2-2.3,3.6v7.7
			c0,2.2,1.8,4,4,4h22c0.5,0,0.9-0.1,1.3-0.2c0.4,0.1,0.8,0.2,1.3,0.2h23.7c1.5,0,2.8-0.8,3.5-2.1c0.7,1.2,2,2.1,3.5,2.1h16.2
			c2.2,0,4-1.8,4-4v-7.7c0-1.6-0.9-3-2.3-3.6v-1.9c0,0,0.1,0,0.1,0h3.2c0.2,0,0.4,0,0.5-0.1v2.3c0,2.2,1.8,4,4,4
			c1.5,0,3.1-0.2,4.6-0.6c1.7-0.4,3.2-1.1,4.6-2.1c0.3-0.2,0.5-0.4,0.8-0.7c-0.4,0.6-0.6,1.3-0.6,2v6.7c0,1.5,0.9,2.9,2.2,3.6
			c0.6,0.3,1.3,0.6,2.1,0.9c0.8,0.3,1.8,0.6,2.8,0.9c1.1,0.3,2.4,0.5,3.7,0.5c1.2,0.1,2.5,0.1,4,0.1c1.1,0,2.1,0,3.2-0.1
			c1.3-0.1,2.6-0.3,3.9-0.6c1.2-0.4,2.3-0.8,3.4-1.4c1.2-0.7,2.3-1.5,3.1-2.6c0.9-1,1.6-2.2,2.1-3.6c0.5-1.4,0.8-2.9,0.8-4.5
			c0-2.2-0.4-4.2-1.2-5.9c-0.3-0.6-0.6-1.1-0.9-1.6c0.7-0.7,1.1-1.7,1.1-2.8V9c0-1.6-0.9-3-2.3-3.6c-0.6-0.3-1.3-0.6-2-0.9
			c-0.8-0.3-1.8-0.6-2.8-0.9c-1-0.3-2.2-0.5-3.4-0.6c-2.2-0.3-4.9-0.4-7.7-0.1c-1.2,0.1-2.4,0.4-3.5,0.7c-1.2,0.4-2.4,0.9-3.4,1.5
			c-0.2,0.1-0.4,0.3-0.6,0.4V5.1c0-2.2-1.8-4-4-4H83.8c-1.7,0-3.1,1-3.7,2.5H55.5c-0.3,0-0.7,0.1-1,0.1c-0.3-0.1-0.6-0.1-1-0.1H29.8
			c-2.2,0-4,1.8-4,4H25.4z"/>
		<path class="st0" d="M216.7,1.1H202c-2.2,0-4,1.8-4,4v2.8c-0.4-0.4-0.8-0.7-1.2-1c-1.9-1.4-4.1-2.5-6.5-3.1
			c-2.3-0.6-4.7-0.9-7.3-0.9c-2.6,0-5,0.3-7.3,0.9c-2.5,0.6-4.7,1.7-6.5,3.1c-0.5,0.4-0.9,0.7-1.3,1.1c-0.3-1.1-1.1-2.1-2.2-2.6
			c-0.6-0.3-1.3-0.6-2.1-0.9c-0.9-0.3-1.8-0.6-2.9-0.9c-1-0.2-2.2-0.5-3.5-0.6c-1.3-0.2-2.8-0.2-4.3-0.2c-2.7,0-5.2,0.3-7.5,1
			c-2.4,0.7-4.6,1.8-6.3,3.3c-1.8,1.5-3.2,3.5-4.2,5.8c-0.9,2.2-1.4,4.8-1.4,7.8c0,3,0.5,5.7,1.5,8c1,2.4,2.5,4.4,4.3,5.9
			c1.8,1.6,4,2.7,6.4,3.4c2.2,0.6,4.6,0.9,7,0.9c1,0,2,0,3.1-0.1c1.2-0.1,2.5-0.3,3.8-0.6c1.2-0.3,2.3-0.6,3.5-1
			c1.2-0.4,2.3-0.8,3.3-1.2c0.9-0.4,1.6-1,2-1.8c0.3,0.2,0.5,0.5,0.8,0.7c1.9,1.5,4.2,2.6,6.7,3.2c2.3,0.6,4.7,0.8,7.3,0.8
			c1.7,0,3.3-0.1,4.8-0.3c1.7-0.2,3.4-0.7,4.9-1.3c1.5-0.6,2.9-1.5,4.2-2.5c0.9-0.7,1.7-1.5,2.4-2.4v2.1c0,2.2,1.8,4,4,4h12.3
			c2.2,0,4-1.8,4-4v-7.4c0-1.1-0.4-2-1.1-2.7l2.2-10.9c0.1-0.3,0.1-0.5,0.1-0.8V5.1C220.7,2.9,218.9,1.1,216.7,1.1z"/>
	</g>
	<g>
		<path class="st1" d="M19.1,27.2c0.5,0,1-0.1,1.5-0.2c0.5-0.1,0.9-0.3,1.4-0.6c0.4-0.2,0.8-0.5,1.1-0.8s0.6-0.6,0.9-0.9h3.2v9.8
			h-22v-7.7l2.3-0.4V15.5l-2.3-0.4V7.5h16.2v7.6l-2.3,0.4V27.2z"/>
		<path class="st1" d="M43.6,19.4l5.3-1.1v5.5l-5.3-1.2v4.2c0.8,0,1.5-0.1,2.2-0.2c0.7-0.1,1.4-0.3,2-0.5c0.6-0.2,1.2-0.4,1.7-0.7
			c0.5-0.3,1-0.5,1.3-0.8h2.6v9.8H29.8v-7.7l2.3-0.4V15.6l-2.3-0.4V7.5h23.7v9.8h-2.6c-0.4-0.3-0.8-0.5-1.3-0.8
			c-0.5-0.3-1.1-0.5-1.7-0.7c-0.6-0.2-1.3-0.3-2-0.5c-0.7-0.1-1.5-0.2-2.2-0.2V19.4z"/>
		<path class="st1" d="M62.8,14.7c-0.7,0-1.3,0.1-1.8,0.3c-0.5,0.2-0.9,0.4-1.3,0.7c-0.3,0.3-0.6,0.6-0.8,0.9
			c-0.2,0.3-0.3,0.6-0.3,0.9h-3.2V7.5h26.2v9.8h-3.2c0-0.3-0.1-0.6-0.3-0.9c-0.2-0.3-0.4-0.6-0.8-0.9s-0.8-0.5-1.3-0.7
			c-0.5-0.2-1.1-0.3-1.8-0.3v11.8l2.3,0.4v7.7H60.5v-7.7l2.3-0.4V14.7z"/>
		<path class="st1" d="M83.8,5.1H96v9.8c0,1.6-0.3,3-0.8,4.1c-0.6,1.1-1.3,2-2.2,2.7s-2,1.2-3.1,1.5c-1.2,0.3-2.4,0.4-3.6,0.4v-6.2
			c0.2,0,0.5-0.1,0.8-0.1c0.3-0.1,0.5-0.2,0.8-0.4c0.2-0.2,0.4-0.4,0.6-0.7s0.2-0.7,0.2-1.2h-4.9V5.1z"/>
		<path class="st1" d="M122.8,26.1c0,1.2-0.2,2.2-0.5,3.2c-0.3,0.9-0.8,1.7-1.4,2.4c-0.6,0.7-1.3,1.2-2.1,1.7
			c-0.8,0.4-1.7,0.8-2.6,1.1c-0.9,0.3-1.9,0.4-2.9,0.5c-1,0-2,0.1-3,0.1c-1.4,0-2.6,0-3.7-0.1c-1.1-0.1-2.1-0.2-3-0.4
			c-0.9-0.2-1.7-0.5-2.3-0.7c-0.7-0.3-1.3-0.5-1.8-0.8v-6.7h5.4c0.5,0.8,1.2,1.5,1.8,1.9c0.7,0.4,1.4,0.6,2.1,0.6
			c0.2,0,0.5,0,0.7-0.1s0.5-0.2,0.7-0.4c0.2-0.2,0.4-0.5,0.6-1c0.2-0.4,0.2-1,0.2-1.8c-1-0.1-2.1-0.2-3.1-0.4c-1-0.2-2-0.4-2.9-0.7
			c-0.9-0.3-1.8-0.7-2.6-1.1c-0.8-0.5-1.5-1-2.1-1.7c-0.6-0.6-1-1.4-1.4-2.3s-0.5-1.9-0.5-3c0-1.3,0.2-2.4,0.5-3.4s0.8-1.8,1.4-2.5
			c0.6-0.7,1.3-1.3,2-1.7s1.6-0.8,2.5-1.1s1.9-0.5,2.8-0.6c1-0.1,2-0.2,3-0.2c1.4,0,2.6,0.1,3.8,0.2c1.1,0.1,2.1,0.3,3,0.5
			c0.9,0.2,1.7,0.5,2.3,0.7c0.7,0.3,1.3,0.5,1.8,0.8v6.7H116c-0.5-0.9-1-1.6-1.7-2s-1.3-0.6-1.9-0.6c-0.2,0-0.5,0-0.7,0.1
			c-0.3,0.1-0.5,0.2-0.8,0.5s-0.4,0.6-0.6,1.1c-0.2,0.5-0.2,1.1-0.2,1.9c2.1,0.1,4,0.3,5.6,0.7c1.6,0.4,2.9,0.9,4,1.7
			c1.1,0.7,1.9,1.7,2.4,2.8C122.6,23,122.8,24.4,122.8,26.1z"/>
		<path class="st1" d="M137.3,20.7c0-2.4,0.4-4.5,1.1-6.2s1.8-3.2,3.1-4.3c1.3-1.1,3-2,4.9-2.5c1.9-0.5,4-0.8,6.4-0.8
			c1.4,0,2.7,0.1,3.8,0.2c1.1,0.1,2.2,0.3,3.1,0.5c0.9,0.2,1.7,0.5,2.4,0.7c0.7,0.3,1.3,0.5,1.9,0.8v8.3h-5.4
			c-0.3-0.4-0.6-0.8-0.9-1.1c-0.3-0.3-0.6-0.6-0.9-0.8c-0.3-0.2-0.7-0.3-1.1-0.5c-0.4-0.1-0.9-0.2-1.4-0.2c-0.7,0-1.3,0.1-1.9,0.3
			c-0.6,0.2-1.2,0.5-1.7,1c-0.5,0.5-0.9,1-1.2,1.8c-0.3,0.7-0.5,1.6-0.5,2.7c0,1.3,0.1,2.3,0.4,3.1c0.2,0.8,0.6,1.4,1.1,1.9
			c0.5,0.5,1,0.8,1.7,1c0.7,0.2,1.4,0.3,2.3,0.3c0.5,0,0.9,0,1.4-0.1c0.5-0.1,1-0.2,1.6-0.4v-2.2h-3.9v-4.7h11.2v12.7
			c-0.9,0.4-2,0.8-3,1.1c-1.1,0.3-2.1,0.6-3.2,0.9s-2.1,0.4-3.1,0.5c-1,0.1-2,0.1-2.8,0.1c-2.1,0-4.1-0.3-6-0.8
			c-1.9-0.5-3.5-1.4-4.8-2.6c-1.4-1.2-2.4-2.7-3.2-4.5S137.3,23.1,137.3,20.7z"/>
		<path class="st1" d="M182.9,34.9c-2.3,0-4.4-0.2-6.3-0.7s-3.7-1.3-5.1-2.5c-1.5-1.2-2.6-2.7-3.4-4.5c-0.8-1.8-1.3-4-1.3-6.5
			c0-2.5,0.4-4.6,1.3-6.4s2-3.2,3.4-4.3c1.5-1.1,3.2-1.9,5.1-2.4c2-0.5,4.1-0.8,6.3-0.8c2.2,0,4.3,0.3,6.3,0.8s3.7,1.3,5.1,2.4
			s2.6,2.5,3.5,4.3c0.8,1.8,1.3,3.9,1.3,6.4c0,1.7-0.2,3.2-0.6,4.6s-0.9,2.6-1.6,3.7s-1.5,2-2.5,2.8c-1,0.8-2.1,1.4-3.3,1.9
			c-1.2,0.5-2.5,0.8-3.9,1C185.8,34.8,184.4,34.9,182.9,34.9z M182.9,15c-0.8,0-1.4,0.1-1.9,0.3c-0.5,0.2-0.9,0.4-1.3,0.7
			c-0.3,0.3-0.6,0.7-0.8,1.1c-0.2,0.4-0.3,0.8-0.4,1.2s-0.1,0.8-0.2,1.2c0,0.4,0,0.8,0,1.1c0,0.3,0,0.6,0,1c0,0.4,0.1,0.8,0.1,1.3
			s0.2,0.9,0.4,1.3c0.2,0.4,0.4,0.8,0.8,1.2s0.8,0.6,1.3,0.8s1.2,0.3,2,0.3c0.8,0,1.4-0.1,1.9-0.3c0.5-0.2,1-0.5,1.3-0.8
			c0.3-0.3,0.6-0.7,0.8-1.1c0.2-0.4,0.3-0.8,0.4-1.3c0.1-0.4,0.1-0.8,0.2-1.3c0-0.4,0-0.8,0-1.1c0-0.3,0-0.7,0-1.1
			c0-0.4-0.1-0.8-0.2-1.2c-0.1-0.4-0.2-0.8-0.4-1.2c-0.2-0.4-0.5-0.8-0.8-1.1c-0.3-0.3-0.8-0.6-1.3-0.8
			C184.3,15.1,183.7,15,182.9,15z"/>
		<path class="st1" d="M202,12.7V5.1h14.8v7.7l-2.5,12h-9.8L202,12.7z M203.2,27.2h12.3v7.4h-12.3V27.2z"/>
	</g>
</g>
</svg>
