<?xml version="1.0" encoding="utf-8"?>
<!-- Generator: Adobe Illustrator 27.3.1, SVG Export Plug-In . SVG Version: 6.00 Build 0)  -->
<svg version="1.1" id="레이어_1" xmlns="http://www.w3.org/2000/svg" xmlns:xlink="http://www.w3.org/1999/xlink" x="0px"
	 y="0px" viewBox="0 0 136 48" style="enable-background:new 0 0 136 48;" xml:space="preserve">
<style type="text/css">
	.st0{fill:#094885;}
	.st1{fill:#FFFFFF;}
	.st2{fill:#E03237;}
</style>
<g>
	<path class="st0" d="M133.4,28.8c0.2-0.2,0.4-0.3,0.6-0.5c0.7-0.7,1.1-1.7,1-2.7c-0.1-2.4-0.9-4.5-2.3-6.3c-1.3-1.8-3.2-3.1-5.4-4
		c-2.1-0.8-4.5-1.2-7.2-1.2c-2.7,0-5.1,0.4-7.2,1.2c-1.1,0.4-2.2,1-3.1,1.6c-0.1-0.4-0.3-0.7-0.5-1.1c-0.7-0.9-1.8-1.4-2.9-1.4h-7.8
		c-1.7,0-3.3,1.2-3.6,2.9l-0.1,0.5l-0.1-0.6c-0.4-1.7-1.9-2.8-3.6-2.8h-7.6c-1.7,0-3.2,1.2-3.6,2.9l-0.1,0.6l-0.1-0.5
		c-0.4-1.7-1.9-2.9-3.6-2.9h-7.9c-1.1,0-2.2,0.5-2.9,1.4c-0.4,0.5-0.6,1.1-0.7,1.8c-0.7-0.6-1.5-1.1-2.3-1.6c-2.4-1.3-5.1-1.9-8-1.9
		c-3.1,0-6,0.7-8.4,2.1c-1.8,1-3.3,2.3-4.5,3.9V9.5c0-2-1.7-3.7-3.7-3.7h-7.9c-2,0-3.7,1.7-3.7,3.7v8.2l-7-10.3
		c-0.7-1-1.8-1.6-3-1.6H9.2c-2,0-3.7,1.7-3.7,3.7v33.6c0,2,1.7,3.7,3.7,3.7h7.9c2,0,3.7-1.7,3.7-3.7v-8.2l7.1,10.3
		c0.7,1,1.8,1.6,3,1.6h6.7c2,0,3.7-1.7,3.7-3.7v-1.7c1.2,1.6,2.7,2.9,4.5,3.9c2.4,1.3,5.3,2,8.5,2c2.6,0,5-0.4,7.1-1.2
		c2.2-0.9,4.1-2.2,5.5-3.9c1.2-1.4,2-3,2.5-4.7l1.7,6.6c0.4,1.6,1.9,2.8,3.6,2.8h8.3c1.7,0,3.1-1.1,3.6-2.7l0.6-2.2l0.6,2.2
		c0.4,1.6,1.9,2.7,3.6,2.7h8.4c1.7,0,3.1-1.1,3.6-2.8l1.7-6.5c0.4,1.7,1.2,3.1,2.2,4.5c1.4,1.7,3.3,3.1,5.6,4
		c2.1,0.8,4.6,1.2,7.4,1.2c2.7,0,5.2-0.4,7.4-1.3c2.4-1,4.3-2.4,5.7-4.2c1.5-1.9,2.2-4.2,2.2-6.7C135.6,32.6,134.8,30.5,133.4,28.8z
		"/>
	<path class="st1" d="M128.3,23.7c0.2-0.2,0.4-0.3,0.6-0.5c0.7-0.7,1.1-1.7,1-2.7c-0.1-2.4-0.9-4.5-2.3-6.3c-1.3-1.8-3.2-3.1-5.4-4
		c-2.1-0.8-4.5-1.2-7.2-1.2c-2.7,0-5.1,0.4-7.2,1.2c-1.1,0.4-2.2,1-3.1,1.6c-0.1-0.4-0.3-0.7-0.5-1.1c-0.7-0.9-1.8-1.4-2.9-1.4h-7.8
		c-1.7,0-3.3,1.2-3.6,2.9l-0.1,0.5L89.6,12c-0.4-1.7-1.9-2.8-3.6-2.8h-7.6c-1.7,0-3.2,1.2-3.6,2.9l-0.1,0.6l-0.1-0.5
		c-0.4-1.7-1.9-2.9-3.6-2.9h-7.9c-1.1,0-2.2,0.5-2.9,1.4c-0.4,0.5-0.6,1.1-0.7,1.8c-0.7-0.6-1.5-1.1-2.3-1.6c-2.4-1.3-5.1-1.9-8-1.9
		c-3.1,0-6,0.7-8.4,2.1c-1.8,1-3.3,2.3-4.5,3.9V4.4c0-2-1.7-3.7-3.7-3.7h-7.9c-2,0-3.7,1.7-3.7,3.7v8.2L14,2.4c-0.7-1-1.8-1.6-3-1.6
		H4.1c-2,0-3.7,1.7-3.7,3.7V38c0,2,1.7,3.7,3.7,3.7H12c2,0,3.7-1.7,3.7-3.7v-8.2l7.1,10.3c0.7,1,1.8,1.6,3,1.6h6.7
		c2,0,3.7-1.7,3.7-3.7v-1.7c1.2,1.6,2.7,2.9,4.5,3.9c2.4,1.3,5.3,2,8.5,2c2.6,0,5-0.4,7.1-1.2c2.2-0.9,4.1-2.2,5.5-3.9
		c1.2-1.4,2-3,2.5-4.7l1.7,6.6c0.4,1.6,1.9,2.8,3.6,2.8H78c1.7,0,3.1-1.1,3.6-2.7l0.6-2.2l0.6,2.2c0.4,1.6,1.9,2.7,3.6,2.7h8.4
		c1.7,0,3.1-1.1,3.6-2.8l1.7-6.5c0.4,1.7,1.2,3.1,2.2,4.5c1.4,1.7,3.3,3.1,5.6,4c2.1,0.8,4.6,1.2,7.4,1.2c2.7,0,5.2-0.4,7.4-1.3
		c2.4-1,4.3-2.4,5.7-4.2c1.5-1.9,2.2-4.2,2.2-6.7C130.5,27.5,129.7,25.4,128.3,23.7z"/>
	<g>
		<polygon class="st2" points="24.7,24.1 24.4,24.1 10.9,4.4 4.1,4.4 4.1,38 12,38 12,18.3 12.2,18.3 25.8,38 32.5,38 32.5,4.4 
			24.7,4.4 		"/>
		<path class="st2" d="M55.3,14c-1.8-1-3.9-1.5-6.3-1.5c-2.5,0-4.7,0.5-6.6,1.6c-1.9,1.1-3.3,2.6-4.4,4.6s-1.5,4.2-1.5,6.8
			c0,2.7,0.5,5,1.5,6.9c1,1.9,2.5,3.4,4.4,4.5c1.9,1,4.2,1.6,6.8,1.6c2.1,0,4.1-0.3,5.7-1c1.7-0.6,3-1.6,4-2.8c1-1.2,1.7-2.6,2-4.3
			h-7.3c-0.2,0.5-0.5,0.9-0.9,1.2c-0.4,0.3-0.9,0.6-1.5,0.8s-1.2,0.3-1.9,0.3c-1.1,0-2-0.2-2.7-0.7s-1.4-1.1-1.8-1.9
			c-0.4-0.8-0.6-1.7-0.6-2.8v-0.1h16.9v-2c0-2.7-0.5-5-1.6-7S57.2,15,55.3,14z M44.3,22.7c0-0.8,0.2-1.6,0.6-2.3
			c0.4-0.7,1-1.3,1.8-1.7s1.6-0.6,2.5-0.6c0.9,0,1.7,0.2,2.4,0.6c0.7,0.4,1.3,0.9,1.7,1.6c0.4,0.7,0.6,1.5,0.6,2.4H44.3z"/>
		<polygon class="st2" points="90.1,29 89.9,29 86,12.8 78.4,12.8 74.6,29.1 74.4,29.1 70.9,12.8 63.1,12.8 69.7,38 78,38 
			82.1,23.1 82.3,23.1 86.3,38 94.7,38 101.3,12.8 93.5,12.8 		"/>
		<path class="st2" d="M125,25.6c-1.2-1.1-3.1-1.9-5.6-2.4l-4.8-0.9c-1-0.2-1.8-0.5-2.2-0.9s-0.7-0.8-0.6-1.3c0-0.4,0.1-0.8,0.4-1.1
			c0.3-0.3,0.7-0.6,1.2-0.8c0.5-0.2,1.1-0.3,1.8-0.3c1,0,1.9,0.2,2.6,0.7s1.1,1.2,1.2,2h7.3c-0.1-1.7-0.6-3.1-1.5-4.3
			s-2.2-2.2-3.9-2.8c-1.7-0.7-3.6-1-5.8-1c-2.3,0-4.2,0.3-5.9,1c-1.7,0.6-2.9,1.6-3.8,2.8s-1.3,2.6-1.3,4.3c0,1.9,0.6,3.5,1.9,4.7
			c1.3,1.2,3.1,2.1,5.6,2.5l4.3,0.8c1.1,0.2,1.9,0.5,2.4,0.9c0.5,0.4,0.8,0.8,0.8,1.4c0,0.4-0.2,0.8-0.5,1.2
			c-0.3,0.3-0.7,0.6-1.3,0.8S116,33,115.3,33c-1.2,0-2.1-0.2-2.8-0.7c-0.7-0.5-1.2-1.2-1.3-2.1h-7.8c0.2,1.7,0.8,3.1,1.8,4.4
			c1,1.2,2.3,2.2,4.1,2.8s3.8,1,6.1,1c2.3,0,4.3-0.4,6-1.1s3.1-1.7,4.1-3c1-1.3,1.5-2.8,1.5-4.4C126.8,28.2,126.2,26.7,125,25.6z"/>
	</g>
</g>
</svg>
