<?xml version="1.0" encoding="utf-8"?>
<!-- Generator: Adobe Illustrator 27.3.1, SVG Export Plug-In . SVG Version: 6.00 Build 0)  -->
<svg version="1.1" id="레이어_1" xmlns="http://www.w3.org/2000/svg" xmlns:xlink="http://www.w3.org/1999/xlink" x="0px"
	 y="0px" viewBox="0 0 156 32" style="enable-background:new 0 0 156 32;" xml:space="preserve">
<style type="text/css">
	.st0{fill:#E03237;}
</style>
<g>
	<path class="st0" d="M1.9,1.1h17.2v8.4l-2.5,0.5v3.6h9.8V9.9L24,9.5V1.1h17.2v8.4l-2.5,0.5v11.8l2.5,0.5v8.3H24v-8.3l2.5-0.5v-3.9
		h-9.8v3.9l2.5,0.5v8.3H1.9v-8.3l2.5-0.5V9.9L1.9,9.5V1.1z"/>
	<path class="st0" d="M58.8,15.4l5.3-1.1v5.5l-5.3-1.2v4.2c0.8,0,1.5-0.1,2.2-0.2c0.7-0.1,1.4-0.3,2-0.5c0.6-0.2,1.2-0.4,1.7-0.7
		c0.5-0.3,1-0.5,1.3-0.8h2.6v9.8H45v-7.7l2.3-0.4V11.6L45,11.1V3.5h23.7v9.8h-2.6c-0.4-0.3-0.8-0.5-1.3-0.8
		c-0.5-0.3-1.1-0.5-1.7-0.7c-0.6-0.2-1.3-0.3-2-0.5c-0.7-0.1-1.5-0.2-2.2-0.2V15.4z"/>
	<path class="st0" d="M101.8,30.6H90.3c-0.4-0.7-0.7-1.4-1.1-2.1c-0.4-0.7-0.8-1.5-1.1-2.4c-0.4-0.8-0.7-1.7-1-2.5s-0.6-1.8-0.8-2.7
		h-0.6v9.7H71.8v-7.7l2.3-0.4V11.5l-2.3-0.4V3.5h15.7c2.1,0,3.9,0.1,5.4,0.3c1.5,0.2,2.8,0.4,3.9,0.8c1.1,0.3,1.9,0.8,2.6,1.3
		s1.2,1,1.5,1.7c0.4,0.6,0.6,1.3,0.7,2c0.1,0.7,0.2,1.5,0.2,2.4c0,0.8-0.1,1.6-0.2,2.3c-0.2,0.7-0.4,1.3-0.9,1.9
		c-0.4,0.6-1,1.1-1.7,1.6s-1.6,0.9-2.7,1.4c0.2,0.5,0.6,1,1,1.6c0.5,0.6,1,1.3,1.5,1.9c0.5,0.7,1.1,1.3,1.6,1.9
		c0.5,0.6,1,1.1,1.4,1.6V30.6z M85.6,15.7c0.7,0,1.3,0,1.9-0.1s1.1-0.2,1.5-0.5c0.4-0.2,0.7-0.6,0.9-1c0.2-0.5,0.3-1.1,0.3-1.9
		c0-0.8-0.1-1.4-0.3-1.8c-0.2-0.5-0.5-0.8-0.9-1.1c-0.4-0.2-0.9-0.4-1.5-0.5c-0.6-0.1-1.2-0.1-1.9-0.1V15.7z"/>
	<path class="st0" d="M120.3,30.9c-2.3,0-4.4-0.2-6.3-0.7s-3.7-1.3-5.1-2.5c-1.5-1.2-2.6-2.7-3.4-4.5c-0.8-1.8-1.3-4-1.3-6.5
		c0-2.5,0.4-4.6,1.3-6.4s2-3.2,3.4-4.3c1.5-1.1,3.2-1.9,5.1-2.4c2-0.5,4.1-0.8,6.3-0.8c2.2,0,4.3,0.3,6.3,0.8s3.7,1.3,5.1,2.4
		s2.6,2.5,3.5,4.3c0.8,1.8,1.3,3.9,1.3,6.4c0,1.7-0.2,3.2-0.6,4.6s-0.9,2.6-1.6,3.7s-1.5,2-2.5,2.8c-1,0.8-2.1,1.4-3.3,1.9
		c-1.2,0.5-2.5,0.8-3.9,1C123.2,30.8,121.8,30.9,120.3,30.9z M120.3,11c-0.8,0-1.4,0.1-1.9,0.3c-0.5,0.2-0.9,0.4-1.3,0.7
		c-0.3,0.3-0.6,0.7-0.8,1.1c-0.2,0.4-0.3,0.8-0.4,1.2s-0.1,0.8-0.2,1.2c0,0.4,0,0.8,0,1.1c0,0.3,0,0.6,0,1c0,0.4,0.1,0.8,0.1,1.3
		s0.2,0.9,0.4,1.3c0.2,0.4,0.4,0.8,0.8,1.2s0.8,0.6,1.3,0.8s1.2,0.3,2,0.3c0.8,0,1.4-0.1,1.9-0.3c0.5-0.2,1-0.5,1.3-0.8
		c0.3-0.3,0.6-0.7,0.8-1.1c0.2-0.4,0.3-0.8,0.4-1.3c0.1-0.4,0.1-0.8,0.2-1.3c0-0.4,0-0.8,0-1.1c0-0.3,0-0.7,0-1.1
		c0-0.4-0.1-0.8-0.2-1.2c-0.1-0.4-0.2-0.8-0.4-1.2c-0.2-0.4-0.5-0.8-0.8-1.1c-0.3-0.3-0.8-0.6-1.3-0.8C121.7,11.1,121,11,120.3,11z"
		/>
	<path class="st0" d="M139.4,8.7V1.1h14.8v7.7l-2.5,12h-9.8L139.4,8.7z M140.6,23.2h12.3v7.4h-12.3V23.2z"/>
</g>
</svg>
