<?xml version="1.0" encoding="utf-8"?>
<!-- Generator: Adobe Illustrator 27.3.1, SVG Export Plug-In . SVG Version: 6.00 Build 0)  -->
<svg version="1.1" id="레이어_1" xmlns="http://www.w3.org/2000/svg" xmlns:xlink="http://www.w3.org/1999/xlink" x="0px"
	 y="0px" viewBox="0 0 214 96" style="enable-background:new 0 0 214 96;" xml:space="preserve">
<style type="text/css">
	.st0{fill:#FFFFFF;}
</style>
<g>
	<g>
		<path class="st0" d="M43.9,37.1H27l-6.7-14.8v14.8H2.3v-10l3-0.6V12.3l-3-0.6V1.9h18.1v14.1L27,1.9h16.2v6.4
			c-1,0.8-1.9,1.7-2.7,2.6c-0.8,0.9-1.6,1.8-2.4,2.8c-0.7,0.9-1.4,1.9-2,2.8c-0.6,0.9-1.2,1.8-1.7,2.6c0.7,1,1.3,2.1,2.1,3.2
			c0.7,1.1,1.5,2.3,2.3,3.4c0.8,1.1,1.6,2.2,2.5,3.3C42.1,30,43,31,43.9,32V37.1z"/>
		<path class="st0" d="M46.5,1.9h21.1v9.9l-3,0.6v14.2l3,0.6v10H46.5v-10l3-0.6V12.3l-3-0.6V1.9z"/>
		<path class="st0" d="M99.7,1.9c2.3,0.5,4.3,1.2,6.1,2.1c1.8,0.9,3.4,2,4.6,3.4c1.3,1.4,2.3,3,2.9,5c0.7,1.9,1,4.2,1,6.7
			c0,2.3-0.3,4.3-0.8,6c-0.5,1.8-1.3,3.3-2.3,4.7s-2.2,2.5-3.6,3.4c-1.4,0.9-3,1.7-4.8,2.3c-1.8,0.6-3.7,1-5.9,1.3
			c-2.1,0.3-4.4,0.4-6.8,0.4H72.3v-10l3-0.6V11.4l-3-0.6v-9H99.7z M92.7,26.5c1.1,0,2.1-0.1,2.8-0.2c0.8-0.2,1.4-0.4,1.9-0.7
			c0.5-0.3,0.9-0.7,1.2-1.1c0.3-0.5,0.5-1,0.6-1.5c0.1-0.6,0.2-1.2,0.2-1.8c0-0.7,0-1.4,0-2.1c0-0.8,0-1.5,0-2.1
			c0-0.7-0.1-1.3-0.2-1.8s-0.3-1.1-0.6-1.5c-0.3-0.4-0.7-0.8-1.2-1.1c-0.5-0.3-1.1-0.5-1.9-0.7c-0.8-0.2-1.7-0.2-2.8-0.2h-2.3v15.1
			H92.7z"/>
		<path class="st0" d="M149.1,26c0,1.6-0.2,2.9-0.7,4.1c-0.4,1.2-1,2.2-1.8,3.1c-0.8,0.9-1.7,1.6-2.7,2.2s-2.2,1.1-3.4,1.4
			s-2.5,0.6-3.8,0.6c-1.3,0.1-2.6,0.1-3.9,0.1c-1.8,0-3.4,0-4.9-0.1c-1.5-0.1-2.7-0.3-3.9-0.6c-1.1-0.3-2.2-0.6-3-0.9
			c-0.9-0.3-1.6-0.7-2.3-1v-8.7h7.1c0.7,1.1,1.5,1.9,2.4,2.4c0.9,0.5,1.8,0.8,2.8,0.8c0.3,0,0.6,0,1-0.1c0.4,0,0.7-0.2,1-0.5
			c0.3-0.3,0.6-0.7,0.8-1.2c0.2-0.6,0.3-1.3,0.3-2.4c-1.4-0.1-2.7-0.3-4-0.5c-1.3-0.2-2.6-0.5-3.8-0.9c-1.2-0.4-2.3-0.9-3.4-1.5
			c-1-0.6-1.9-1.3-2.7-2.2c-0.8-0.8-1.4-1.8-1.8-3s-0.7-2.5-0.7-3.9c0-1.7,0.2-3.2,0.7-4.5c0.4-1.3,1-2.4,1.8-3.3
			c0.8-0.9,1.6-1.7,2.7-2.3s2.1-1.1,3.3-1.4c1.2-0.4,2.4-0.6,3.7-0.7s2.6-0.2,3.9-0.2c1.8,0,3.4,0.1,4.9,0.3s2.7,0.4,3.9,0.7
			c1.1,0.3,2.2,0.6,3,0.9c0.9,0.3,1.7,0.7,2.3,1v8.8h-7.6c-0.6-1.2-1.4-2.1-2.2-2.6s-1.7-0.8-2.5-0.8c-0.3,0-0.6,0-1,0.1
			c-0.4,0.1-0.7,0.3-1,0.6c-0.3,0.3-0.6,0.8-0.8,1.4c-0.2,0.6-0.3,1.5-0.3,2.5c2.8,0.1,5.2,0.4,7.2,0.9c2.1,0.5,3.8,1.2,5.2,2.2
			c1.4,1,2.5,2.2,3.2,3.7C148.8,22,149.1,23.9,149.1,26z"/>
		<path class="st0" d="M10.4,69.2c-0.9,0-1.6,0.1-2.3,0.4S6.8,70,6.4,70.4c-0.5,0.4-0.8,0.7-1,1.1C5.1,71.9,5,72.3,5,72.7H0.8V59.9
			H35v12.8h-4.2c0-0.3-0.1-0.7-0.4-1.1c-0.2-0.4-0.6-0.8-1-1.1c-0.5-0.3-1-0.6-1.7-0.9c-0.7-0.2-1.4-0.4-2.3-0.4v15.4l3,0.6v10H7.4
			v-10l3-0.6V69.2z"/>
		<path class="st0" d="M38.4,59.9h21.1v9.9l-3,0.6v4.1h12v-4.1l-3-0.6v-10h21.1v10l-3,0.6v14.2l3,0.6v10H65.5v-10l3-0.6v-4.2h-12
			v4.2l3,0.6v10H38.4v-10l3-0.6V70.3l-3-0.6V59.9z"/>
		<path class="st0" d="M109.4,75.3l6.9-1.5V81l-6.9-1.5V85c1,0,2-0.1,2.9-0.2c0.9-0.1,1.8-0.3,2.6-0.6c0.8-0.2,1.5-0.5,2.2-0.9
			s1.2-0.7,1.7-1.1h3.4v12.8H91.3v-10l3-0.6V70.3l-3-0.6v-9.9h30.9v12.8h-3.4c-0.5-0.4-1.1-0.7-1.7-1c-0.7-0.3-1.4-0.6-2.2-0.9
			s-1.7-0.5-2.6-0.6c-0.9-0.1-1.9-0.2-2.9-0.2V75.3z"/>
		<path class="st0" d="M144.3,77.9v17.2h-18v-10l3-0.6V70.3l-3-0.6v-9.9h18l7.6,13.5l7.5-13.5h18v9.9l-3,0.6v14.2l3,0.6v10h-18V77.9
			l-7.5,12.7L144.3,77.9z"/>
		<path class="st0" d="M200.3,75.3l6.9-1.5V81l-6.9-1.5V85c1,0,2-0.1,2.9-0.2c0.9-0.1,1.8-0.3,2.6-0.6c0.8-0.2,1.5-0.5,2.2-0.9
			s1.2-0.7,1.7-1.1h3.4v12.8h-30.9v-10l3-0.6V70.3l-3-0.6v-9.9h30.9v12.8h-3.4c-0.5-0.4-1.1-0.7-1.7-1c-0.7-0.3-1.4-0.6-2.2-0.9
			s-1.7-0.5-2.6-0.6c-0.9-0.1-1.9-0.2-2.9-0.2V75.3z"/>
	</g>
</g>
</svg>
