<?xml version="1.0" encoding="utf-8"?>
<!-- Generator: Adobe Illustrator 27.3.1, SVG Export Plug-In . SVG Version: 6.00 Build 0)  -->
<svg version="1.1" id="레이어_1" xmlns="http://www.w3.org/2000/svg" xmlns:xlink="http://www.w3.org/1999/xlink" x="0px"
	 y="0px" viewBox="0 0 265 38" style="enable-background:new 0 0 265 38;" xml:space="preserve">
<style type="text/css">
	.st0{fill:#094885;}
	.st1{fill:#FFFFFF;}
	.st2{fill:#E03237;}
</style>
<g>
	<g>
		<path class="st0" d="M84.2,13.7c-1.9-1.1-4.1-1.6-6.6-1.6c-2.5,0-4.7,0.5-6.6,1.6c-0.5,0.3-1,0.6-1.4,0.9c-0.2-1.1-1-2-2-2.3
			c-0.7-0.2-1.5-0.3-2.5-0.3c-1.2,0-2.3,0.2-3.2,0.7c-0.4-0.3-1-0.4-1.5-0.4h-5.8c-1.6,0-2.8,1.3-2.8,2.8v1.3
			c-0.9-1.2-2.1-2.2-3.4-2.9c-1.8-1-3.9-1.5-6.2-1.5c-2.4,0-4.6,0.5-6.5,1.6c-1.4,0.8-2.5,1.8-3.4,3v-8c0-1.6-1.3-2.8-2.8-2.8h-6.1
			c-1.6,0-2.8,1.3-2.8,2.8v7.6h-4.7V8.7c0-1.6-1.3-2.8-2.8-2.8H7c-1.6,0-2.8,1.3-2.8,2.8v25.8c0,1.6,1.3,2.8,2.8,2.8h6.1
			c1.6,0,2.8-1.3,2.8-2.8v-7.6h4.7v7.6c0,1.6,1.3,2.8,2.8,2.8h6.1c1.6,0,2.8-1.3,2.8-2.8v-1.3c0.9,1.2,2.1,2.2,3.5,3
			c1.9,1,4.1,1.5,6.6,1.5c2,0,3.8-0.3,5.4-0.9c1.6-0.6,2.9-1.5,4-2.7v0.4c0,1.6,1.3,2.8,2.8,2.8h6c1.6,0,2.8-1.3,2.8-2.8V23.9
			c0-0.4,0.1-0.5,0.1-0.6c0.1-0.1,0.2-0.2,0.3-0.3c0.1-0.1,0.3-0.1,0.6-0.1c0.2,0,0.5,0,0.7,0.1c-0.1,0.6-0.1,1.3-0.1,2
			c0,2.4,0.5,4.6,1.5,6.5c1,2,2.5,3.6,4.5,4.7c1.9,1.1,4.1,1.6,6.6,1.6c2.5,0,4.7-0.5,6.6-1.6c2-1.1,3.5-2.7,4.5-4.7
			c1-1.9,1.5-4.1,1.5-6.5s-0.5-4.6-1.5-6.5C87.7,16.4,86.2,14.8,84.2,13.7z"/>
		<path class="st0" d="M175.7,23.1c0.5-0.6,0.8-1.3,0.8-2.1c-0.1-1.8-0.7-3.5-1.7-4.9c-1-1.4-2.4-2.4-4.2-3.1c-1.6-0.6-3.5-1-5.5-1
			c-2.1,0-3.9,0.3-5.5,0.9c-1.5,0.6-2.7,1.4-3.6,2.4V8.7c0-1.6-1.3-2.8-2.8-2.8h-6c-1.6,0-2.8,1.3-2.8,2.8v3.7
			c-0.8-0.3-1.8-0.4-2.8-0.4c-2,0-3.8,0.5-5.4,1.5c-1,0.6-1.9,1.5-2.7,2.6v-1c0-0.8-0.3-1.5-0.9-2.1c0,0,0.1-0.1,0.1-0.1
			c0.6-0.9,0.9-1.9,0.9-3c0-1.1-0.3-2.1-0.9-3c-0.5-0.8-1.3-1.5-2.2-2c-1.8-1-4.1-1-5.9,0c-0.7,0.4-1.3,0.9-1.8,1.6
			c-0.5-0.4-1.1-0.7-1.8-0.7h-7.2c-0.9,0-1.7,0.4-2.2,1.1l-4,5V8.7c0-1.6-1.3-2.8-2.8-2.8h-6.1c-1.6,0-2.8,1.3-2.8,2.8v25.8
			c0,1.6,1.3,2.8,2.8,2.8h6.1c1.6,0,2.8-1.3,2.8-2.8V30l3.9,6c0.5,0.8,1.4,1.3,2.4,1.3h7.3c0.6,0,1.2-0.2,1.7-0.6
			c0.5,0.4,1.1,0.6,1.7,0.6h6c1.6,0,2.8-1.3,2.8-2.8v-1c0.7,1,1.6,1.9,2.6,2.5h0c1.6,1.1,3.5,1.6,5.5,1.6c1.3,0,2.4-0.2,3.5-0.7
			c0.2-0.1,0.3-0.1,0.4-0.2c0.5,0.4,1.1,0.6,1.7,0.6h5.9c1.6,0,2.8-1.3,2.8-2.8v-0.1c1,1,2.2,1.7,3.6,2.3c1.6,0.6,3.6,1,5.7,1
			c2.1,0,4-0.3,5.7-1c1.8-0.7,3.3-1.8,4.4-3.2c1.1-1.5,1.7-3.2,1.7-5.2c0-1.9-0.6-3.5-1.7-4.8C175.4,23.4,175.6,23.3,175.7,23.1z
			 M122,12c0.1,0.3,0.3,0.7,0.5,1c0,0,0.1,0.1,0.1,0.1c-0.5,0.5-0.9,1.2-0.9,2v15.1l-6.5-9.9L122,12z"/>
		<path class="st0" d="M264.3,32.9l-6.1-9.2l5.6-6.8c0.7-0.8,0.8-2,0.4-3c-0.5-1-1.5-1.6-2.6-1.6h-6.8c-0.9,0-1.7,0.4-2.2,1.1
			l-0.8,1V8.7c0-1.6-1.3-2.8-2.8-2.8h-6c-1.6,0-2.8,1.3-2.8,2.8v3.4c-0.4-0.1-0.8-0.1-1.3-0.1c-1.2,0-2.3,0.2-3.2,0.7
			c-0.4-0.3-1-0.4-1.5-0.4h-5.8c-1.6,0-2.8,1.3-2.8,2.8v0.7c-1-1.2-2.4-2.2-4-2.8c-1.6-0.6-3.4-0.9-5.4-0.9c-2.1,0-4,0.4-5.6,1.1
			c-1,0.4-1.8,1-2.6,1.6c-0.2-1.1-0.6-2.2-1.2-3.2c-1-1.8-2.5-3.2-4.4-4.2c-1.8-1-3.9-1.4-6.3-1.4h-10.5c-1.6,0-2.8,1.3-2.8,2.8
			v25.8c0,1.6,1.3,2.8,2.8,2.8h6.1c1.6,0,2.8-1.3,2.8-2.8v-5.2h1.5c2.4,0,4.5-0.5,6.4-1.4c0.8-0.4,1.5-0.9,2.2-1.4
			c-0.2,0.8-0.4,1.7-0.4,2.7c0,1.8,0.4,3.4,1.3,4.7c0.9,1.3,2,2.3,3.5,3c1.3,0.6,2.8,0.9,4.3,0.9c0,0,0.1,0,0.1,0
			c1.6,0,3-0.3,4.2-0.8c0.5,0.3,1,0.5,1.6,0.5h5.7c0.7,0,1.3-0.3,1.8-0.7c0.5,0.4,1.1,0.7,1.8,0.7h6c1.6,0,2.8-1.3,2.8-2.8V23.9
			c0-0.4,0.1-0.5,0.1-0.6c0.1-0.1,0.2-0.2,0.3-0.3c0.1-0.1,0.3-0.1,0.6-0.1c0.3,0,0.6,0,0.9,0.1c0.4,0.1,0.6,0.1,0.6,0.1
			c0.2,0.1,0.3,0.1,0.5,0.1v11.4c0,1.6,1.3,2.8,2.8,2.8h6c1.5,0,2.7-1.1,2.8-2.6l0.8,1.3c0.5,0.8,1.4,1.3,2.4,1.3h6.9
			c1,0,2-0.6,2.5-1.5C264.9,34.9,264.8,33.8,264.3,32.9z"/>
	</g>
	<g>
		<path class="st1" d="M80.3,9.8c-1.9-1.1-4.1-1.6-6.6-1.6c-2.5,0-4.7,0.5-6.6,1.6c-0.5,0.3-1,0.6-1.4,0.9c-0.2-1.1-1-2-2-2.3
			c-0.7-0.2-1.5-0.3-2.5-0.3c-1.2,0-2.3,0.2-3.2,0.7c-0.4-0.3-1-0.4-1.5-0.4h-5.8c-1.6,0-2.8,1.3-2.8,2.8v1.3
			c-0.9-1.2-2.1-2.2-3.4-2.9c-1.8-1-3.9-1.5-6.2-1.5c-2.4,0-4.6,0.5-6.5,1.6c-1.4,0.8-2.5,1.8-3.4,3v-8c0-1.6-1.3-2.8-2.8-2.8h-6.1
			c-1.6,0-2.8,1.3-2.8,2.8v7.6H12V4.8C12,3.2,10.7,2,9.1,2H3.1C1.5,2,0.3,3.2,0.3,4.8v25.8c0,1.6,1.3,2.8,2.8,2.8h6.1
			c1.6,0,2.8-1.3,2.8-2.8V23h4.7v7.6c0,1.6,1.3,2.8,2.8,2.8h6.1c1.6,0,2.8-1.3,2.8-2.8v-1.3c0.9,1.2,2.1,2.2,3.5,3
			c1.9,1,4.1,1.5,6.6,1.5c2,0,3.8-0.3,5.4-0.9c1.6-0.6,2.9-1.5,4-2.7v0.4c0,1.6,1.3,2.8,2.8,2.8h6c1.6,0,2.8-1.3,2.8-2.8V20
			c0-0.4,0.1-0.5,0.1-0.6c0.1-0.1,0.2-0.2,0.3-0.3c0.1-0.1,0.3-0.1,0.6-0.1c0.2,0,0.5,0,0.7,0.1c-0.1,0.6-0.1,1.3-0.1,2
			c0,2.4,0.5,4.6,1.5,6.5c1,2,2.5,3.6,4.5,4.7c1.9,1.1,4.1,1.6,6.6,1.6c2.5,0,4.7-0.5,6.6-1.6c2-1.1,3.5-2.7,4.5-4.7
			c1-1.9,1.5-4.1,1.5-6.5s-0.5-4.6-1.5-6.5C83.8,12.4,82.2,10.9,80.3,9.8z"/>
		<path class="st1" d="M171.8,19.2c0.5-0.6,0.8-1.3,0.8-2.1c-0.1-1.8-0.7-3.5-1.7-4.9c-1-1.4-2.4-2.4-4.2-3.1c-1.6-0.6-3.5-1-5.5-1
			c-2.1,0-3.9,0.3-5.5,0.9c-1.5,0.6-2.7,1.4-3.6,2.4V4.8c0-1.6-1.3-2.8-2.8-2.8h-6c-1.6,0-2.8,1.3-2.8,2.8v3.7
			c-0.8-0.3-1.8-0.4-2.8-0.4c-2,0-3.8,0.5-5.4,1.5c-1,0.6-1.9,1.5-2.7,2.6v-1c0-0.8-0.3-1.5-0.9-2.1c0,0,0.1-0.1,0.1-0.1
			c0.6-0.9,0.9-1.9,0.9-3c0-1.1-0.3-2.1-0.9-3c-0.5-0.8-1.3-1.5-2.2-2c-1.8-1-4.1-1-5.9,0c-0.7,0.4-1.3,0.9-1.8,1.6
			C118.4,2.2,117.7,2,117,2h-7.2c-0.9,0-1.7,0.4-2.2,1.1l-4,5V4.8c0-1.6-1.3-2.8-2.8-2.8h-6.1c-1.6,0-2.8,1.3-2.8,2.8v25.8
			c0,1.6,1.3,2.8,2.8,2.8h6.1c1.6,0,2.8-1.3,2.8-2.8v-4.5l3.9,6c0.5,0.8,1.4,1.3,2.4,1.3h7.3c0.6,0,1.2-0.2,1.7-0.6
			c0.5,0.4,1.1,0.6,1.7,0.6h6c1.6,0,2.8-1.3,2.8-2.8v-1c0.7,1,1.6,1.9,2.6,2.5h0c1.6,1.1,3.5,1.6,5.5,1.6c1.3,0,2.4-0.2,3.5-0.7
			c0.2-0.1,0.3-0.1,0.4-0.2c0.5,0.4,1.1,0.6,1.7,0.6h5.9c1.6,0,2.8-1.3,2.8-2.8v-0.1c1,1,2.2,1.7,3.6,2.3c1.6,0.6,3.6,1,5.7,1
			c2.1,0,4-0.3,5.7-1c1.8-0.7,3.3-1.8,4.4-3.2c1.1-1.5,1.7-3.2,1.7-5.2c0-1.9-0.6-3.5-1.7-4.8C171.5,19.5,171.6,19.3,171.8,19.2z
			 M118,8.1c0.1,0.3,0.3,0.7,0.5,1c0,0,0.1,0.1,0.1,0.1c-0.5,0.5-0.9,1.2-0.9,2v15.1l-6.5-9.9L118,8.1z"/>
		<path class="st1" d="M260.3,29l-6.1-9.2l5.6-6.8c0.7-0.8,0.8-2,0.4-3c-0.5-1-1.5-1.6-2.6-1.6h-6.8c-0.9,0-1.7,0.4-2.2,1.1l-0.8,1
			V4.8c0-1.6-1.3-2.8-2.8-2.8h-6c-1.6,0-2.8,1.3-2.8,2.8v3.4c-0.4-0.1-0.8-0.1-1.3-0.1c-1.2,0-2.3,0.2-3.2,0.7
			c-0.4-0.3-1-0.4-1.5-0.4h-5.8c-1.6,0-2.8,1.3-2.8,2.8v0.7c-1-1.2-2.4-2.2-4-2.8c-1.6-0.6-3.4-0.9-5.4-0.9c-2.1,0-4,0.4-5.6,1.1
			c-1,0.4-1.8,1-2.6,1.6c-0.2-1.1-0.6-2.2-1.2-3.2c-1-1.8-2.5-3.2-4.4-4.2c-1.8-1-3.9-1.4-6.3-1.4h-10.5c-1.6,0-2.8,1.3-2.8,2.8
			v25.8c0,1.6,1.3,2.8,2.8,2.8h6.1c1.6,0,2.8-1.3,2.8-2.8v-5.2h1.5c2.4,0,4.5-0.5,6.4-1.4c0.8-0.4,1.5-0.9,2.2-1.4
			c-0.2,0.8-0.4,1.7-0.4,2.7c0,1.8,0.4,3.4,1.3,4.7c0.9,1.3,2,2.3,3.5,3c1.3,0.6,2.8,0.9,4.3,0.9c0,0,0.1,0,0.1,0
			c1.6,0,3-0.3,4.2-0.8c0.5,0.3,1,0.5,1.6,0.5h5.7c0.7,0,1.3-0.3,1.8-0.7c0.5,0.4,1.1,0.7,1.8,0.7h6c1.6,0,2.8-1.3,2.8-2.8V20
			c0-0.4,0.1-0.5,0.1-0.6c0.1-0.1,0.2-0.2,0.3-0.3c0.1-0.1,0.3-0.1,0.6-0.1c0.3,0,0.6,0,0.9,0.1c0.4,0.1,0.6,0.1,0.6,0.1
			c0.2,0.1,0.3,0.1,0.5,0.1v11.4c0,1.6,1.3,2.8,2.8,2.8h6c1.5,0,2.7-1.1,2.8-2.6l0.8,1.3c0.5,0.8,1.4,1.3,2.4,1.3h6.9
			c1,0,2-0.6,2.5-1.5C261,31,260.9,29.9,260.3,29z"/>
	</g>
	<g>
		<polygon class="st2" points="19.5,15.2 9.1,15.2 9.1,4.8 3.1,4.8 3.1,30.6 9.1,30.6 9.1,20.1 19.5,20.1 19.5,30.6 25.6,30.6 
			25.6,4.8 19.5,4.8 		"/>
		<path class="st2" d="M43.1,12.1c-1.4-0.8-3-1.1-4.8-1.1c-1.9,0-3.6,0.4-5,1.2c-1.4,0.8-2.6,2-3.3,3.5c-0.8,1.5-1.2,3.3-1.2,5.2
			c0,2.1,0.4,3.8,1.2,5.3c0.8,1.5,1.9,2.6,3.4,3.4c1.5,0.8,3.2,1.2,5.2,1.2c1.6,0,3.1-0.2,4.4-0.7c1.3-0.5,2.3-1.2,3.1-2.1
			c0.8-0.9,1.3-2,1.5-3.3h-5.6c-0.2,0.4-0.4,0.7-0.7,1c-0.3,0.3-0.7,0.5-1.1,0.6s-0.9,0.2-1.5,0.2c-0.8,0-1.5-0.2-2.1-0.5
			c-0.6-0.3-1-0.8-1.4-1.4s-0.5-1.3-0.5-2.2v-0.1h13v-1.5c0-2.1-0.4-3.9-1.2-5.4C45.6,14,44.5,12.9,43.1,12.1z M34.6,18.8
			c0-0.6,0.2-1.2,0.5-1.7c0.3-0.6,0.8-1,1.3-1.3c0.6-0.3,1.2-0.5,1.9-0.5c0.7,0,1.3,0.1,1.8,0.4c0.5,0.3,1,0.7,1.3,1.2
			c0.3,0.5,0.5,1.1,0.5,1.8H34.6z"/>
		<path class="st2" d="M58.4,11.9c-0.8,0.6-1.4,1.6-1.7,2.8h-0.2v-3.5h-5.8v19.3h6V20c0-0.8,0.2-1.4,0.5-2c0.3-0.6,0.8-1,1.4-1.4
			c0.6-0.3,1.2-0.5,2-0.5c0.4,0,0.8,0,1.3,0.1s0.8,0.1,1.1,0.2v-5.2c-0.5-0.1-1-0.2-1.7-0.2C60.1,11,59.2,11.3,58.4,11.9z"/>
		<path class="st2" d="M78.9,12.2c-1.5-0.8-3.2-1.2-5.2-1.2s-3.7,0.4-5.2,1.2c-1.5,0.8-2.6,2-3.4,3.5S64,19,64,21s0.4,3.7,1.2,5.2
			s1.9,2.7,3.4,3.5c1.5,0.8,3.2,1.2,5.2,1.2s3.7-0.4,5.2-1.2c1.5-0.8,2.6-2,3.4-3.5c0.8-1.5,1.2-3.2,1.2-5.2s-0.4-3.7-1.2-5.2
			C81.5,14.2,80.4,13.1,78.9,12.2z M76.9,23.8c-0.3,0.8-0.7,1.5-1.2,1.9s-1.2,0.7-1.9,0.7c-0.8,0-1.4-0.2-2-0.7s-1-1.1-1.2-1.9
			s-0.4-1.8-0.4-2.9c0-1.1,0.1-2,0.4-2.9c0.3-0.8,0.7-1.5,1.2-1.9s1.2-0.7,2-0.7c0.7,0,1.4,0.2,1.9,0.7s0.9,1.1,1.2,1.9
			c0.3,0.8,0.4,1.8,0.4,2.8C77.3,22,77.2,23,76.9,23.8z"/>
		<polygon class="st2" points="117,4.8 109.9,4.8 101.2,15.8 100.8,15.8 100.8,4.8 94.8,4.8 94.8,30.6 100.8,30.6 100.8,23.5 
			103.4,20.3 109.9,30.6 117.2,30.6 107.8,16.3 		"/>
		<path class="st2" d="M125.2,3.5c-0.5-0.3-1-0.4-1.5-0.4c-0.6,0-1.1,0.1-1.6,0.4c-0.5,0.3-0.8,0.6-1.1,1.1
			c-0.3,0.4-0.4,0.9-0.4,1.5c0,0.5,0.1,1,0.4,1.5c0.3,0.4,0.7,0.8,1.1,1c0.5,0.3,1,0.4,1.6,0.4c0.6,0,1.1-0.1,1.5-0.4
			c0.5-0.3,0.9-0.6,1.1-1s0.4-0.9,0.4-1.5c0-0.5-0.1-1-0.4-1.5C126,4.1,125.6,3.8,125.2,3.5z"/>
		<rect x="120.6" y="11.2" class="st2" width="6" height="19.3"/>
		<path class="st2" d="M143.1,14.6H143c0-0.1-0.1-0.1-0.1-0.2s0-0.1-0.1-0.2c-0.3-0.6-0.7-1.2-1.1-1.6c-0.5-0.5-1-0.9-1.7-1.2
			s-1.5-0.4-2.4-0.4c-1.4,0-2.7,0.4-3.9,1.1c-1.2,0.7-2.1,1.8-2.8,3.3c-0.7,1.5-1.1,3.3-1.1,5.5c0,2.1,0.3,3.9,1,5.4
			s1.6,2.6,2.8,3.4c1.2,0.8,2.5,1.1,3.9,1.1c0.9,0,1.7-0.1,2.4-0.4c0.7-0.3,1.3-0.7,1.8-1.1s0.9-1,1.2-1.6l0.1-0.2h0.2v3.1h5.9V4.8
			h-6V14.6z M142.8,23.7c-0.3,0.8-0.7,1.4-1.3,1.8c-0.6,0.4-1.2,0.7-2,0.7s-1.4-0.2-2-0.7s-1-1.1-1.3-1.8c-0.3-0.8-0.4-1.7-0.4-2.8
			c0-1.1,0.1-2,0.4-2.8c0.3-0.8,0.7-1.4,1.3-1.8c0.5-0.4,1.2-0.6,2-0.6c0.8,0,1.4,0.2,2,0.6c0.6,0.4,1,1,1.3,1.8
			c0.3,0.8,0.4,1.7,0.5,2.8C143.3,22,143.1,22.9,142.8,23.7z"/>
		<path class="st2" d="M164.5,19.2l-3.7-0.7c-0.8-0.2-1.4-0.4-1.7-0.7c-0.3-0.3-0.5-0.6-0.5-1c0-0.3,0.1-0.6,0.3-0.9
			c0.2-0.2,0.6-0.4,1-0.6c0.4-0.1,0.8-0.2,1.3-0.2c0.8,0,1.5,0.2,2,0.6c0.5,0.4,0.8,0.9,0.9,1.5h5.6c-0.1-1.3-0.5-2.4-1.2-3.3
			c-0.7-0.9-1.7-1.7-3-2.2c-1.3-0.5-2.8-0.8-4.5-0.8c-1.7,0-3.2,0.2-4.5,0.7c-1.3,0.5-2.3,1.2-2.9,2.1s-1,2-1,3.3
			c0,1.5,0.5,2.7,1.4,3.6c1,0.9,2.4,1.6,4.3,1.9l3.3,0.6c0.8,0.2,1.4,0.4,1.8,0.7c0.4,0.3,0.6,0.6,0.6,1.1c0,0.3-0.1,0.6-0.3,0.9
			c-0.2,0.3-0.6,0.4-1,0.6c-0.4,0.1-0.9,0.2-1.5,0.2c-0.9,0-1.6-0.2-2.2-0.5c-0.6-0.4-0.9-0.9-1-1.6h-6c0.1,1.3,0.6,2.4,1.3,3.4
			c0.8,0.9,1.8,1.7,3.1,2.2c1.3,0.5,2.9,0.8,4.7,0.8c1.7,0,3.3-0.3,4.6-0.8s2.4-1.3,3.2-2.3c0.8-1,1.1-2.1,1.1-3.4
			c0-1.4-0.5-2.5-1.4-3.4C167.8,20.2,166.4,19.5,164.5,19.2z"/>
		<path class="st2" d="M197,5.9c-1.4-0.7-3.1-1.1-5-1.1h-10.5v25.8h6.1v-8.1h4.3c1.9,0,3.6-0.4,5.1-1.1c1.4-0.7,2.6-1.8,3.3-3.1
			c0.8-1.3,1.1-2.9,1.1-4.6c0-1.8-0.4-3.3-1.1-4.6C199.5,7.7,198.4,6.6,197,5.9z M194.6,15.8c-0.3,0.6-0.8,1.1-1.5,1.4
			c-0.7,0.3-1.4,0.5-2.4,0.5h-3.2v-8h3.2c0.9,0,1.7,0.2,2.4,0.5c0.7,0.3,1.2,0.8,1.5,1.4c0.3,0.6,0.5,1.3,0.5,2.1
			C195.1,14.5,194.9,15.2,194.6,15.8z"/>
		<path class="st2" d="M216.5,11.7c-1.3-0.5-2.7-0.7-4.4-0.7c-1.7,0-3.2,0.3-4.5,0.8c-1.3,0.5-2.2,1.3-2.9,2.2
			c-0.7,0.9-1.1,2-1.2,3.2h5.6c0.1-0.6,0.4-1.1,0.9-1.5c0.5-0.3,1.1-0.5,1.9-0.5c0.5,0,1,0.1,1.4,0.2c0.4,0.2,0.7,0.4,0.9,0.7
			c0.2,0.3,0.3,0.7,0.3,1.2l0,1.5c-0.3,0-0.6,0-0.9,0c-0.6,0-1.2,0.1-1.9,0.1c-0.7,0-1.3,0.1-1.9,0.1c-2.1,0.1-3.9,0.7-5.2,1.6
			c-1.3,1-2,2.4-2,4.4c0,1.2,0.3,2.3,0.8,3.2c0.5,0.9,1.3,1.5,2.3,1.9c1,0.4,2.1,0.6,3.3,0.6c1.4,0,2.5-0.2,3.4-0.8s1.7-1.3,2.2-2.3
			h0.1v2.7h5.7V17.5c0-1.4-0.4-2.5-1.1-3.5S217.7,12.2,216.5,11.7z M214.2,25.4c-0.3,0.5-0.8,0.9-1.3,1.2c-0.6,0.3-1.2,0.4-1.8,0.4
			c-0.5,0-0.9-0.1-1.3-0.2s-0.7-0.4-0.9-0.7s-0.3-0.7-0.3-1.1c0-0.6,0.2-1.1,0.7-1.5c0.4-0.4,1.1-0.6,1.8-0.7
			c0.8-0.1,1.7-0.1,2.8-0.2c0.3,0,0.5,0,0.6,0c0.1,0,0.2,0,0.3,0l0,1.2C214.7,24.3,214.5,24.9,214.2,25.4z"/>
		<path class="st2" d="M232,11.9c-0.8,0.6-1.4,1.6-1.7,2.8h-0.2v-3.5h-5.8v19.3h6V20c0-0.8,0.2-1.4,0.5-2c0.3-0.6,0.8-1,1.4-1.4
			c0.6-0.3,1.2-0.5,2-0.5c0.4,0,0.8,0,1.3,0.1s0.8,0.1,1.1,0.2v-5.2c-0.5-0.1-1-0.2-1.7-0.2C233.8,11,232.8,11.3,232,11.9z"/>
		<polygon class="st2" points="251,30.6 258,30.6 250.8,19.7 257.7,11.2 250.9,11.2 245.3,18.2 245,18.2 245,4.8 239,4.8 239,30.6 
			245,30.6 245,24.7 246.3,23.2 		"/>
	</g>
</g>
</svg>
